<?xml version="1.0" encoding="utf-8"?>
<!-- Generator: Adobe Illustrator 18.1.0, SVG Export Plug-In . SVG Version: 6.00 Build 0)  -->
<svg version="1.1" id="Layer_1" xmlns="http://www.w3.org/2000/svg" xmlns:xlink="http://www.w3.org/1999/xlink" x="0px" y="0px"
	 viewBox="0 0 2000 2000" enable-background="new 0 0 2000 2000" xml:space="preserve">
<g>
	<path fill="none" d="M839.5,489.3c23.5-11.4,47.8-21.2,72.6-29.4c236.3-73.8,487.4,44.3,605.5,265.8
		c84.1,168.2,67.6,365.9-26.9,522.1c26,20,52,39.5,77.8,58.3c116.5-183.5,129.1-414,37.7-609.9C1458.6,386,1074.6,267.8,779.2,415.5
		c-3.1,1.7-6.1,3.4-9.1,5.1C792.6,442.2,815.7,465,839.5,489.3z"/>
	<path fill="none" d="M695.1,488.6c11.9,6.3,26.5,12.6,24.6-14.9c-0.2-2.6-3.3-7.8-8.7-14.9c-9.3,6.8-18.3,14-27.1,21.3
		C690.1,485,694,488,695.1,488.6z"/>
	<path fill="none" d="M923.9,612.8c60.3-25.3,127.6-33.5,194.9-20.1c147.7,29.5,265.8,132.9,295.4,280.6
		c23.1,104.1,5.4,201.3-39.7,282c21.6,17.7,43.6,35.4,65.8,53c55.3-95.7,78.5-208,62.5-320.3c-29.6-132.9-103.4-251.1-221.5-324.9
		c-118.5-59.2-265.4-80.4-395.2-25.5c2.7,2.8,5.3,5.5,7.9,8.4C894.1,546.1,912.2,570.6,923.9,612.8z"/>
	<path fill="none" d="M852.6,755.4c-0.1,0.1-0.2,0.3-0.3,0.4l50.4,48.4c0.1-0.1,0.2-0.2,0.3-0.4L852.6,755.4z"/>
	<path fill="none" d="M867.8,1080.1c59.1,59.1,162.5,59.1,236.3,29.5c6.7-3.4,13.1-7.3,19.1-11.6c-15-15.9-29.3-31-42.9-45.2
		c-22.7,16.8-50.5,27.3-79.6,27.3c-44.3,0-73.9-29.6-103.4-59.1c-36.2-54.3-44.5-114.1-25.3-165.9c-18.8-9.1-40-14.7-65.3-15.7
		C780.2,921.8,795.8,1016.1,867.8,1080.1z"/>
	<path fill="none" d="M1439.2,1319.6l69.6,66.9c0.1-0.1,0.2-0.3,0.3-0.4l-69.6-66.9C1439.4,1319.3,1439.3,1319.4,1439.2,1319.6z"/>
	<path fill="none" d="M1015.5,1375.5c-313.6,14.3-530.8-329.2-426-618.8c-23.8-21.5-46.4-42.5-67.8-63
		c-34.2,75.3-52.7,157-52.7,238.7c14.8,206.8,132.9,398.7,324.9,487.4c147.7,59.1,295.4,44.3,443.1-14.8
		c36.7-19.8,70.2-43.4,100.2-70c-18.9-22.1-37.8-43.9-56.8-65.4C1208.4,1330.8,1115.5,1369.6,1015.5,1375.5z"/>
	<path fill="none" d="M1332.4,1217l61.4,58.9c0.1-0.1,0.2-0.3,0.3-0.4l-61.4-58.9C1332.6,1216.7,1332.5,1216.9,1332.4,1217z"/>
	<path fill="none" d="M1116.2,867.1c-93.3-31.8-99.3-19.5-32.8,4c32.4,22.6,47.3,50.2,49.7,77.8c15.5,13.7,32.3,28.6,50.3,44.3
		C1187.4,947.2,1168.1,899.1,1116.2,867.1z"/>
	<path fill="none" d="M738.7,646c-0.1,0.1-0.2,0.2-0.3,0.4l59,56.7c0.1-0.1,0.2-0.3,0.3-0.4L738.7,646z"/>
	<path fill="none" d="M1237,829c44.3,73.8,44.3,147.7,14.8,221.5c-0.1,0.5-0.3,1-0.4,1.5c21.4,18.4,43.7,37.3,66.8,56.6
		c63.3-146.3,16.6-341.3-140.2-412.6c-73.8-29.5-147.7-44.3-221.5-14.8c-7.8,2.9-15.4,6.2-22.7,9.8c0.2,29.3,5.9,53,15.6,73.6
		C1050.8,698.4,1165,742.6,1237,829z"/>
	<path fill="none" d="M1224.6,1113.5l57.3,55.1c0.1-0.1,0.2-0.3,0.3-0.4l-57.4-55.1C1224.8,1113.2,1224.7,1113.3,1224.6,1113.5z"/>
	<path fill="none" d="M853,1272.1c125.7,57.1,278,34.6,381.5-53.8c-17.6-19.4-34.8-38.3-51.7-56.6c-96.5,83.6-263.9,91.3-374-7.8
		C722.2,1067.4,698,949.8,727,835.8c-39.8-7-67.2-21.2-77.5-27.3C599.2,984.6,670.2,1180.7,853,1272.1z"/>
	<path fill="none" d="M565.4,634.3c27.5,0.8,20.7-13.5,13.9-25.2c-0.5-0.8-2.6-3.5-5.9-7.3c-6.2,9.1-12.2,18.5-17.9,27.9
		C560,632.6,563.5,634.2,565.4,634.3z"/>
	<path fill="none" d="M648.1,558.9c0,0,21.4-5.6-5.4-40.9c-12.2,12.3-23.8,25.1-34.9,38.3c35.3,24.2,40,2.9,40,2.9l40.3,38.8
		c0.1-0.1,0.2-0.2,0.3-0.4L648.1,558.9z"/>
	<path fill="none" d="M1163.5,1054.1l-45.2-43.4c-0.1,0.1-0.2,0.3-0.2,0.4l45.2,43.4C1163.4,1054.4,1163.4,1054.2,1163.5,1054.1z"/>
	<path fill="#717375" d="M1855.7,1719c132.3-129.7-239.5-379-239.5-379c-1.3-0.9-2.6-1.8-3.9-2.7c-18.6,30.8-39.5,60.2-62.6,87.8
		L1855.7,1719z"/>
	<path fill="#717375" d="M1439.5,1319.2l69.6,66.9c2.8-3.5,5.7-7,8.4-10.6c18.8-22.2,35.7-45.4,51-69.5
		c-25.8-18.8-51.9-38.3-77.8-58.3C1475.7,1272.7,1458.5,1296.6,1439.5,1319.2z"/>
	<path fill="#717375" d="M1332.7,1216.6l61.4,58.9c17.3-21.2,32.8-43.7,46.3-67.1c-22.2-17.6-44.2-35.3-65.8-53
		C1362.5,1177,1348.5,1197.5,1332.7,1216.6z"/>
	<path fill="#717375" d="M1183.4,993.2c-18-15.7-34.8-30.6-50.3-44.3c1.8,21.3-3.8,42.7-14.8,61.8l45.2,43.4
		C1174.6,1035.4,1181.5,1014.5,1183.4,993.2z"/>
	<path fill="#717375" d="M1224.9,1113.1l57.4,55.1c10.5-13.6,20.1-28.2,28.6-43.8c2.6-5.2,5-10.4,7.3-15.7
		c-23-19.3-45.4-38.3-66.8-56.6C1245.6,1074.4,1236.6,1094.7,1224.9,1113.1z"/>
	<path fill="#636467" d="M1280.3,1269.6c19,21.5,38,43.3,56.8,65.4c20.6-18.3,39.5-38.1,56.6-59.1l-61.4-58.9
		C1316.7,1236,1299.2,1253.6,1280.3,1269.6z"/>
	<path fill="#636467" d="M1472.5,1502.6c38.5,50.6,269.1,342.4,382.8,216.7l-306-294C1526,1453.1,1500.3,1478.9,1472.5,1502.6z"/>
	<path fill="#636467" d="M1163.3,1054.5l-45.2-43.4c-9.3,15.9-22.3,30.3-37.7,41.8c13.6,14.2,27.9,29.3,42.9,45.2
		C1139.5,1086.3,1153.1,1071.4,1163.3,1054.5z"/>
	<path fill="#636467" d="M1182.7,1161.7c16.9,18.3,34.2,37.2,51.7,56.6c17.3-14.8,33.3-31.4,47.5-49.8l-57.3-55.1
		C1213.1,1131.6,1198.9,1147.7,1182.7,1161.7z"/>
	<path fill="#636467" d="M1508.9,1386.5l-69.6-66.9c-18.9,22.4-39.6,43.4-62.1,62.8c21.5,25.9,42.5,51.8,62.6,77.5
		C1464.2,1437.8,1487.3,1413.4,1508.9,1386.5z"/>
	<path fill="#6CAB36" d="M711,458.7c-8.1-10.8-21.6-26.1-38.4-44.3c-11.8,8.7-23.5,17.8-35,27.5c20,16.7,36.2,30.1,46.3,38.1
		C692.7,472.7,701.7,465.6,711,458.7z"/>
	<path fill="#6CAB36" d="M797.7,702.7c-0.1,0.1-0.2,0.3-0.3,0.4l54.9,52.7c0.1-0.1,0.2-0.3,0.3-0.4L797.7,702.7z"/>
	<path fill="#6CAB36" d="M573.4,601.8c-7.6-8.8-21.9-24.9-40.5-45.5c-8.5,12-16.6,24.4-24.3,36.9c20.2,17.1,36.6,30.1,46.9,36.5
		C561.2,620.3,567.1,611,573.4,601.8z"/>
	<path fill="#6CAB36" d="M607.7,556.3c11-13.3,22.7-26,34.9-38.3c-3.4-4.5-7.6-9.5-12.7-15c-5.9-6.4-15.5-16.4-27.7-28.8
		c-14,14-27.3,28.6-39.9,43.8c12.4,11.1,22.3,19.9,28.7,25.4C597.3,548.7,602.8,553,607.7,556.3z"/>
	<path fill="#6CAB36" d="M1015.5,1375.5c100-5.9,192.9-44.6,264.8-105.9c18.9-16.1,36.4-33.6,52.1-52.6c0.1-0.1,0.2-0.3,0.3-0.4
		c15.8-19.1,29.7-39.6,41.8-61.2c45.1-80.7,62.8-178,39.7-282c-29.5-147.7-147.7-251.1-295.4-280.6c-67.3-13.5-134.6-5.2-194.9,20.1
		c5.7,20.7,9.9,45.6,9.7,74c0,1.5,0.1,2.8,0.1,4.3c7.4-3.6,14.9-6.9,22.7-9.8c73.8-29.5,147.7-14.8,221.5,14.8
		c156.8,71.3,203.5,266.3,140.2,412.6c-2.3,5.3-4.7,10.5-7.3,15.7c-8.5,15.5-18.1,30.1-28.6,43.8c-0.1,0.1-0.2,0.3-0.3,0.4
		c-14.2,18.4-30.2,35-47.5,49.8c-103.5,88.4-255.7,110.9-381.5,53.8c-182.8-91.4-253.9-287.5-203.6-463.6c-3-1.7-4.7-2.9-4.7-2.9
		c-19.1-16.6-37.5-32.9-55.3-48.9C484.7,1046.3,701.9,1389.7,1015.5,1375.5z"/>
	<path fill="#6CAB36" d="M808.7,1154c110.1,99.1,277.5,91.4,374,7.8c16.2-14,30.3-30.1,41.9-48.3c0.1-0.1,0.2-0.3,0.3-0.4
		c11.7-18.3,20.7-38.7,26.4-61c0.1-0.5,0.3-1,0.4-1.5c29.5-73.8,29.5-147.7-14.8-221.5c-72-86.4-186.2-130.6-287.7-64.3
		c18,38,49.9,65.5,87.3,98.2c7.6,6.6,18.9,16.8,33.3,29.7l-32.8,40.2L903,803.8c-0.1,0.1-0.2,0.2-0.3,0.4l134.3,129l-33,40.4
		c-16.3-16.8-29-29.8-36.9-38.2c-32.2-34-59.6-63.2-95-80.3c-19.3,51.8-10.9,111.6,25.3,165.9c29.5,29.5,59.1,59.1,103.4,59.1
		c29.1,0,56.9-10.5,79.6-27.3c15.4-11.4,28.4-25.8,37.7-41.8c0.1-0.1,0.2-0.3,0.2-0.4c11-19.1,16.7-40.4,14.8-61.8
		c-2.4-27.6-17.3-55.2-49.7-77.8c-66.5-23.5-60.6-35.7,32.8-4c51.9,31.9,71.3,80.1,67.2,126.1c-1.9,21.4-8.8,42.3-19.9,60.9
		c-0.1,0.1-0.2,0.3-0.2,0.4c-10.1,16.9-23.7,31.8-40,43.5c-6,4.3-12.4,8.3-19.1,11.6c-73.8,29.6-177.2,29.6-236.3-29.5
		c-72-64-87.6-158.3-61-240.7c-6.4-0.3-12.9-0.3-19.8,0c-22.2,1.1-42.3-0.6-60-3.7C698,949.8,722.2,1067.4,808.7,1154z"/>
	<path fill="#6CAB36" d="M688.4,597.7c-0.1,0.1-0.2,0.2-0.3,0.4l50.3,48.4c0.1-0.1,0.2-0.2,0.3-0.4L688.4,597.7z"/>
	<path fill="#6CAB36" d="M1612.3,1337.2c113.5-188.3,139.3-430.2,53-641.1C1506.2,338,1061.2,182.7,726.1,379.3
		c14.3,13.2,29,27,43.9,41.4c3-1.7,6-3.5,9.1-5.1c295.4-147.7,679.4-29.5,827.1,280.6c91.4,195.9,78.8,426.4-37.7,609.9
		c-15.2,24-32.2,47.2-51,69.5c-2.8,3.6-5.6,7.1-8.4,10.6c-0.1,0.1-0.2,0.3-0.3,0.4c-21.6,26.9-44.7,51.4-69.1,73.4
		c-142.5,128.8-329.9,176.6-527.7,151.9c-72.8-10.4-142.3-32.3-206.6-63.6l-16.3,55.2c220.8,95.9,450.4,79.5,665.9-21.1
		c42.6-22.3,81.7-49.2,117.4-79.6c27.8-23.7,53.5-49.5,76.8-77.3c0.1-0.1,0.2-0.2,0.3-0.4C1572.8,1397.4,1593.7,1368,1612.3,1337.2z
		"/>
	<path fill="#6CAB36" d="M1439.2,1319.6c0.1-0.1,0.2-0.3,0.3-0.4c19-22.6,36.1-46.5,51.2-71.4c94.4-156.2,110.9-353.9,26.9-522.1
		C1399.5,504.1,1148.4,386,912.1,459.8c-24.8,8.3-49.1,18.1-72.6,29.4c15.3,15.6,30.8,31.8,46.6,48.5
		c129.8-54.9,276.7-33.8,395.2,25.5c118.2,73.8,192,192,221.5,324.9c16,112.3-7.2,224.6-62.5,320.3c-13.5,23.5-29,45.9-46.3,67.1
		c-0.1,0.1-0.2,0.3-0.3,0.4c-17.1,21-36,40.8-56.6,59.1c-29.9,26.6-63.4,50.2-100.2,70c-147.7,59.1-295.4,73.9-443.1,14.8
		c-192-88.6-310.1-280.6-324.9-487.4c0-81.7,18.5-163.4,52.7-238.7c-15.4-14.7-30.2-29.1-44.4-43.2
		c-102.5,213.5-86.1,477.2,80.3,665.9c177.2,192,457.8,265.8,694.1,147.7c46.4-22,88.2-49.7,125.4-81.7
		C1399.7,1363,1420.4,1341.9,1439.2,1319.6z"/>
	<path fill="#636467" d="M589.5,756.7c17.8,16,36.2,32.3,55.3,48.9c0,0,1.7,1.1,4.7,2.9c10.3,6,37.7,20.2,77.5,27.3
		c17.7,3.1,37.8,4.8,60,3.7c6.9-0.4,13.5-0.3,19.8,0c25.3,1,46.4,6.6,65.3,15.7c35.4,17.1,62.8,46.3,95,80.3
		c7.9,8.3,20.6,21.4,36.9,38.2l33-40.4l-134.3-129l-50.4-48.4l-54.9-52.7l-59-56.7L688.1,598l-40.3-38.8c0,0-4.6,21.2-40-2.9
		c-4.9-3.4-10.5-7.6-16.7-13c-6.4-5.5-16.3-14.3-28.7-25.4c-85.8-77-291.6-266.8-291.6-266.8s-21,0.4-4.9,15.8
		c12.2,11.7,182.7,196.2,267,289.4c18.6,20.6,33,36.7,40.5,45.5c3.3,3.8,5.4,6.4,5.9,7.3c6.8,11.7,13.6,25.9-13.9,25.2
		c-1.9-0.1-5.4-1.7-9.9-4.5c-10.3-6.4-26.7-19.3-46.9-36.5c-98.1-83.1-284.7-263.9-284.7-263.9s-25.4-24.3-27.8-13.8
		c0,0,80.9,135.9,281.3,335c14.2,14.1,29,28.5,44.4,43.2C543.1,714.2,565.7,735.2,589.5,756.7z"/>
	<path fill="#717375" d="M642.6,518c26.8,35.3,5.4,40.9,5.4,40.9l40.3,38.7l50.3,48.4l59,56.6l54.9,52.7l50.4,48.4l134.3,129
		l32.8-40.2c-14.4-12.9-25.7-23-33.3-29.7c-37.4-32.7-69.3-60.2-87.3-98.2c-9.8-20.6-15.4-44.3-15.6-73.6c0-1.5-0.1-2.8-0.1-4.3
		c0.3-28.5-3.9-53.3-9.7-74c-11.7-42.2-29.9-66.7-29.9-66.7c-2.7-2.8-5.3-5.6-7.9-8.4c-15.8-16.7-31.3-32.9-46.6-48.5
		c-23.8-24.3-46.9-47-69.4-68.6c-15-14.4-29.6-28.1-43.9-41.4C522.6,191.3,386.3,117.4,386.3,117.4c-10.4,2.8,14.9,27.2,14.9,27.2
		S584,318.8,672.6,414.5c16.8,18.1,30.3,33.5,38.4,44.3c5.4,7.1,8.5,12.3,8.7,14.9c1.9,27.5-12.7,21.2-24.6,14.9
		c-1.1-0.6-5-3.6-11.2-8.5c-10.1-8.1-26.3-21.5-46.3-38.1c-97.4-81.3-285.1-241.2-297.1-252.8c-16-15.4-15.6,5.5-15.6,5.5
		s196.1,196.2,277.2,279.5c12.1,12.5,21.8,22.5,27.7,28.8C635,508.5,639.2,513.5,642.6,518z"/>
	<path fill="#6CAB36" d="M354.3,1707.2c0,0,178.5-13,270.2-121.2c-251.7-109.1-417.8,200.4-417.8,200.4
		c369.7,101.7,436.8-101.9,448.6-165.6C609.8,1656.8,505.7,1721,354.3,1707.2z"/>
	<path fill="#6CAB36" d="M578.8,1512.1c23.2-177.8-201-226.6-201-226.6c2.5,250.9,142.8,256.3,184.9,252.3
		c-30.7-22.1-89.9-75.9-108.5-173.7C454.1,1364.1,494.3,1473.9,578.8,1512.1z"/>
</g>
</svg>
